<svg xmlns="http://www.w3.org/2000/svg" xmlns:xlink="http://www.w3.org/1999/xlink" width="1980" zoomAndPan="magnify" viewBox="0 0 1485 1484.999939" height="1980" preserveAspectRatio="xMidYMid meet" version="1.0"><defs><clipPath id="b82a45f47d"><path d="M 148.5 148.5 L 1336.5 148.5 L 1336.5 1336.5 L 148.5 1336.5 Z M 148.5 148.5 " clip-rule="nonzero"/></clipPath><clipPath id="70f13ae363"><path d="M 1336.5 223.5 L 1336.5 1261.5 C 1336.5 1281.390625 1328.597656 1300.46875 1314.53125 1314.53125 C 1300.46875 1328.597656 1281.390625 1336.5 1261.5 1336.5 L 223.5 1336.5 C 203.609375 1336.5 184.53125 1328.597656 170.46875 1314.53125 C 156.402344 1300.46875 148.5 1281.390625 148.5 1261.5 L 148.5 223.5 C 148.5 203.609375 156.402344 184.53125 170.46875 170.46875 C 184.53125 156.402344 203.609375 148.5 223.5 148.5 L 1261.5 148.5 C 1281.390625 148.5 1300.46875 156.402344 1314.53125 170.46875 C 1328.597656 184.53125 1336.5 203.609375 1336.5 223.5 Z M 1336.5 223.5 " clip-rule="nonzero"/></clipPath><clipPath id="7554c7f477"><path d="M 0.5 0.5 L 1188.5 0.5 L 1188.5 1188.5 L 0.5 1188.5 Z M 0.5 0.5 " clip-rule="nonzero"/></clipPath><clipPath id="caa2067948"><path d="M 1188.5 75.5 L 1188.5 1113.5 C 1188.5 1133.390625 1180.597656 1152.46875 1166.53125 1166.53125 C 1152.46875 1180.597656 1133.390625 1188.5 1113.5 1188.5 L 75.5 1188.5 C 55.609375 1188.5 36.53125 1180.597656 22.46875 1166.53125 C 8.402344 1152.46875 0.5 1133.390625 0.5 1113.5 L 0.5 75.5 C 0.5 55.609375 8.402344 36.53125 22.46875 22.46875 C 36.53125 8.402344 55.609375 0.5 75.5 0.5 L 1113.5 0.5 C 1133.390625 0.5 1152.46875 8.402344 1166.53125 22.46875 C 1180.597656 36.53125 1188.5 55.609375 1188.5 75.5 Z M 1188.5 75.5 " clip-rule="nonzero"/></clipPath><clipPath id="1bfed7f67b"><rect x="0" width="1189" y="0" height="1189"/></clipPath><clipPath id="3922d4239c"><path d="M 381.464844 430 L 1103.714844 430 L 1103.714844 1055 L 381.464844 1055 Z M 381.464844 430 " clip-rule="nonzero"/></clipPath></defs><g clip-path="url(#b82a45f47d)"><g clip-path="url(#70f13ae363)"><g transform="matrix(1, 0, 0, 1, 148, 148)"><g clip-path="url(#1bfed7f67b)"><g clip-path="url(#7554c7f477)"><g clip-path="url(#caa2067948)"><path fill="#392a90" d="M 0.5 0.5 L 1188.5 0.5 L 1188.5 1188.5 L 0.5 1188.5 Z M 0.5 0.5 " fill-opacity="1" fill-rule="nonzero"/></g></g></g></g></g></g><g clip-path="url(#3922d4239c)"><path fill="#ffffff" d="M 742.507812 1054.375 C 737.367188 1054.375 732.5 1052.035156 729.285156 1048.015625 C 691.117188 1000.253906 627.582031 956.058594 422.972656 956.058594 C 399.3125 956.058594 381.464844 936.941406 381.464844 911.59375 L 381.464844 472.125 C 381.464844 449.203125 400.046875 430.621094 422.875 430.621094 C 598.582031 431.410156 699.78125 467.960938 742.5 547.875 C 785.214844 467.960938 886.390625 431.410156 1061.953125 430.621094 C 1084.953125 430.621094 1103.527344 449.203125 1103.527344 472.03125 L 1103.527344 914.550781 C 1103.527344 937.4375 1084.914062 956.054688 1062.023438 956.054688 C 857.46875 956.054688 793.914062 1000.25 755.710938 1048.015625 C 752.507812 1052.035156 747.648438 1054.375 742.507812 1054.375 Z M 422.902344 464.46875 C 418.710938 464.46875 415.3125 467.863281 415.3125 472.039062 L 415.3125 911.589844 C 415.3125 914.082031 415.867188 922.214844 422.972656 922.214844 C 587.351562 922.214844 682.226562 948.394531 742.507812 1011.726562 C 802.824219 948.386719 897.6875 922.214844 1062.03125 922.214844 C 1066.257812 922.214844 1069.691406 918.78125 1069.691406 914.558594 L 1069.6875 472.125 C 1069.6875 467.859375 1066.296875 464.46875 1062.125 464.46875 C 875.808594 465.304688 782.296875 506.847656 758.90625 599.171875 C 757.003906 606.683594 750.246094 611.941406 742.5 611.941406 C 734.757812 611.941406 727.996094 606.683594 726.09375 599.171875 C 702.710938 506.847656 609.199219 465.304688 422.902344 464.46875 Z M 422.902344 464.46875 " fill-opacity="1" fill-rule="evenodd"/></g><path fill="#ffffff" d="M 742.507812 1054.375 C 733.164062 1054.375 725.585938 1046.800781 725.585938 1037.453125 L 725.585938 703.199219 C 725.585938 693.855469 733.164062 686.277344 742.507812 686.277344 C 751.859375 686.277344 759.429688 693.855469 759.429688 703.199219 L 759.429688 1037.445312 C 759.429688 1046.800781 751.855469 1054.375 742.507812 1054.375 Z M 742.507812 1054.375 " fill-opacity="1" fill-rule="evenodd"/></svg>